<mxfile host="Electron" modified="2025-02-10T10:32:35.562Z" agent="Mozilla/5.0 (Macintosh; Intel Mac OS X 10_15_7) AppleWebKit/537.36 (KHTML, like Gecko) draw.io/24.6.1 Chrome/124.0.6367.207 Electron/30.0.6 Safari/537.36" etag="bAwrXUqo568Adq13u8tv" version="24.6.1" type="device">
  <diagram name="Seite-1" id="ES93lCiZLSs9HigXjMA0">
    <mxGraphModel dx="757" dy="508" grid="1" gridSize="10" guides="1" tooltips="1" connect="1" arrows="1" fold="1" page="1" pageScale="1" pageWidth="827" pageHeight="1169" math="0" shadow="0">
      <root>
        <mxCell id="0" />
        <mxCell id="1" parent="0" />
        <mxCell id="81Kv6je6dNo07UJzKBw4-1" value="" style="ellipse;whiteSpace=wrap;html=1;aspect=fixed;" parent="1" vertex="1">
          <mxGeometry x="160" y="190" width="50" height="50" as="geometry" />
        </mxCell>
        <mxCell id="81Kv6je6dNo07UJzKBw4-3" value="" style="ellipse;whiteSpace=wrap;html=1;aspect=fixed;" parent="1" vertex="1">
          <mxGeometry x="363.5" y="190" width="50" height="50" as="geometry" />
        </mxCell>
        <mxCell id="81Kv6je6dNo07UJzKBw4-4" value="" style="ellipse;whiteSpace=wrap;html=1;aspect=fixed;" parent="1" vertex="1">
          <mxGeometry x="260" y="280" width="50" height="50" as="geometry" />
        </mxCell>
        <mxCell id="81Kv6je6dNo07UJzKBw4-5" value="" style="ellipse;whiteSpace=wrap;html=1;aspect=fixed;" parent="1" vertex="1">
          <mxGeometry x="260" y="100" width="50" height="50" as="geometry" />
        </mxCell>
        <mxCell id="81Kv6je6dNo07UJzKBw4-7" value="" style="endArrow=none;html=1;rounded=0;entryX=0;entryY=1;entryDx=0;entryDy=0;exitX=1;exitY=0;exitDx=0;exitDy=0;" parent="1" source="81Kv6je6dNo07UJzKBw4-1" target="81Kv6je6dNo07UJzKBw4-5" edge="1">
          <mxGeometry width="50" height="50" relative="1" as="geometry">
            <mxPoint x="390" y="370" as="sourcePoint" />
            <mxPoint x="440" y="320" as="targetPoint" />
          </mxGeometry>
        </mxCell>
        <mxCell id="81Kv6je6dNo07UJzKBw4-8" value="" style="endArrow=none;html=1;rounded=0;entryX=1;entryY=1;entryDx=0;entryDy=0;exitX=0;exitY=0;exitDx=0;exitDy=0;" parent="1" source="81Kv6je6dNo07UJzKBw4-4" target="81Kv6je6dNo07UJzKBw4-1" edge="1">
          <mxGeometry width="50" height="50" relative="1" as="geometry">
            <mxPoint x="390" y="370" as="sourcePoint" />
            <mxPoint x="440" y="320" as="targetPoint" />
          </mxGeometry>
        </mxCell>
        <mxCell id="81Kv6je6dNo07UJzKBw4-9" value="" style="endArrow=none;html=1;rounded=0;exitX=0;exitY=1;exitDx=0;exitDy=0;entryX=1;entryY=0;entryDx=0;entryDy=0;" parent="1" source="81Kv6je6dNo07UJzKBw4-3" target="81Kv6je6dNo07UJzKBw4-4" edge="1">
          <mxGeometry width="50" height="50" relative="1" as="geometry">
            <mxPoint x="344" y="304" as="sourcePoint" />
            <mxPoint x="303" y="290" as="targetPoint" />
          </mxGeometry>
        </mxCell>
        <mxCell id="81Kv6je6dNo07UJzKBw4-10" value="" style="endArrow=none;html=1;rounded=0;entryX=1;entryY=1;entryDx=0;entryDy=0;exitX=0;exitY=0;exitDx=0;exitDy=0;" parent="1" source="81Kv6je6dNo07UJzKBw4-3" target="81Kv6je6dNo07UJzKBw4-5" edge="1">
          <mxGeometry width="50" height="50" relative="1" as="geometry">
            <mxPoint x="280" y="290" as="sourcePoint" />
            <mxPoint x="330" y="240" as="targetPoint" />
          </mxGeometry>
        </mxCell>
        <mxCell id="81Kv6je6dNo07UJzKBw4-11" value="" style="ellipse;whiteSpace=wrap;html=1;aspect=fixed;fillColor=#f8cecc;strokeColor=#b85450;" parent="1" vertex="1">
          <mxGeometry x="260" y="190" width="50" height="50" as="geometry" />
        </mxCell>
        <mxCell id="81Kv6je6dNo07UJzKBw4-12" value="" style="endArrow=none;html=1;rounded=0;entryX=0.5;entryY=1;entryDx=0;entryDy=0;exitX=0.5;exitY=0;exitDx=0;exitDy=0;" parent="1" source="81Kv6je6dNo07UJzKBw4-11" target="81Kv6je6dNo07UJzKBw4-5" edge="1">
          <mxGeometry width="50" height="50" relative="1" as="geometry">
            <mxPoint x="280" y="290" as="sourcePoint" />
            <mxPoint x="330" y="240" as="targetPoint" />
          </mxGeometry>
        </mxCell>
        <mxCell id="81Kv6je6dNo07UJzKBw4-13" value="" style="endArrow=none;html=1;rounded=0;entryX=0.5;entryY=1;entryDx=0;entryDy=0;exitX=0.5;exitY=0;exitDx=0;exitDy=0;" parent="1" source="81Kv6je6dNo07UJzKBw4-4" target="81Kv6je6dNo07UJzKBw4-11" edge="1">
          <mxGeometry width="50" height="50" relative="1" as="geometry">
            <mxPoint x="280" y="290" as="sourcePoint" />
            <mxPoint x="330" y="240" as="targetPoint" />
          </mxGeometry>
        </mxCell>
        <mxCell id="81Kv6je6dNo07UJzKBw4-14" value="" style="endArrow=none;html=1;rounded=0;exitX=1;exitY=0.5;exitDx=0;exitDy=0;entryX=0;entryY=0.5;entryDx=0;entryDy=0;" parent="1" source="81Kv6je6dNo07UJzKBw4-1" target="81Kv6je6dNo07UJzKBw4-11" edge="1">
          <mxGeometry width="50" height="50" relative="1" as="geometry">
            <mxPoint x="280" y="290" as="sourcePoint" />
            <mxPoint x="330" y="240" as="targetPoint" />
          </mxGeometry>
        </mxCell>
        <mxCell id="81Kv6je6dNo07UJzKBw4-15" value="" style="endArrow=none;html=1;rounded=0;entryX=0;entryY=0.5;entryDx=0;entryDy=0;exitX=1;exitY=0.5;exitDx=0;exitDy=0;" parent="1" source="81Kv6je6dNo07UJzKBw4-11" target="81Kv6je6dNo07UJzKBw4-3" edge="1">
          <mxGeometry width="50" height="50" relative="1" as="geometry">
            <mxPoint x="280" y="290" as="sourcePoint" />
            <mxPoint x="330" y="240" as="targetPoint" />
          </mxGeometry>
        </mxCell>
        <mxCell id="81Kv6je6dNo07UJzKBw4-21" value="" style="endArrow=classic;html=1;rounded=0;fillColor=#f8cecc;strokeColor=#E60000;exitX=0.98;exitY=0.399;exitDx=0;exitDy=0;exitPerimeter=0;" parent="1" source="81Kv6je6dNo07UJzKBw4-11" edge="1">
          <mxGeometry width="50" height="50" relative="1" as="geometry">
            <mxPoint x="310" y="210" as="sourcePoint" />
            <mxPoint x="350" y="210" as="targetPoint" />
          </mxGeometry>
        </mxCell>
        <mxCell id="81Kv6je6dNo07UJzKBw4-24" value="" style="endArrow=classic;html=1;rounded=0;fillColor=#f8cecc;strokeColor=#E60000;entryX=0.624;entryY=0.989;entryDx=0;entryDy=0;entryPerimeter=0;" parent="1" edge="1">
          <mxGeometry width="50" height="50" relative="1" as="geometry">
            <mxPoint x="291" y="190" as="sourcePoint" />
            <mxPoint x="291.19999999999993" y="159.45" as="targetPoint" />
          </mxGeometry>
        </mxCell>
        <mxCell id="81Kv6je6dNo07UJzKBw4-25" value="" style="endArrow=classic;html=1;rounded=0;fillColor=#f8cecc;strokeColor=#E60000;exitX=0.029;exitY=0.384;exitDx=0;exitDy=0;exitPerimeter=0;" parent="1" source="81Kv6je6dNo07UJzKBw4-11" edge="1">
          <mxGeometry width="50" height="50" relative="1" as="geometry">
            <mxPoint x="236.19999999999993" y="210.58999999999995" as="sourcePoint" />
            <mxPoint x="220" y="209" as="targetPoint" />
          </mxGeometry>
        </mxCell>
        <mxCell id="81Kv6je6dNo07UJzKBw4-26" value="" style="endArrow=classic;html=1;rounded=0;fillColor=#f8cecc;strokeColor=#E60000;exitX=0.782;exitY=0.899;exitDx=0;exitDy=0;exitPerimeter=0;" parent="1" edge="1">
          <mxGeometry width="50" height="50" relative="1" as="geometry">
            <mxPoint x="290" y="239.99999999999994" as="sourcePoint" />
            <mxPoint x="290" y="270" as="targetPoint" />
          </mxGeometry>
        </mxCell>
      </root>
    </mxGraphModel>
  </diagram>
</mxfile>
